<?xml version="1.0" encoding="UTF-8" standalone="no"?>
<!DOCTYPE svg PUBLIC "-//W3C//DTD SVG 1.1//EN" "http://www.w3.org/Graphics/SVG/1.1/DTD/svg11.dtd">
<svg width="100%" height="100%" viewBox="0 0 60 60" version="1.1" xmlns="http://www.w3.org/2000/svg" xmlns:xlink="http://www.w3.org/1999/xlink" xml:space="preserve" xmlns:serif="http://www.serif.com/" style="fill-rule:evenodd;clip-rule:evenodd;stroke-linejoin:round;stroke-miterlimit:2;">
    <g id="pen" transform="matrix(1,0,0,1,-0.000190067,0.00025968)">
        <path d="M43.4,16.58C41.833,14.972 39.694,14.044 37.449,14C35.705,13.978 34.023,14.654 32.78,15.877L27.913,20.777C27.898,20.791 27.881,20.801 27.866,20.815C27.851,20.829 27.853,20.834 27.846,20.842L17.518,31.256C17.041,31.73 16.691,32.317 16.5,32.961L14.151,41.469C14.075,41.808 14.024,42.153 14,42.5C14,44.42 15.58,46 17.5,46C17.89,45.969 18.277,45.906 18.657,45.812L27.135,43.583C27.779,43.392 28.365,43.043 28.84,42.567L44.107,27.186C46.884,24.406 46.571,19.75 43.4,16.58ZM30.015,37.8C29.925,36.89 29.682,36.001 29.296,35.172L38.75,25.719C39.387,27.436 39.005,29.373 37.764,30.719C37.756,30.727 37.747,30.732 37.739,30.739L37.752,30.752L30.024,38.541C30.025,38.293 30.037,38.049 30.015,37.8ZM28.794,34.26C28.424,33.633 27.981,33.053 27.472,32.532C26.865,31.941 26.176,31.438 25.428,31.04L34.96,21.5C36.423,22.146 37.617,23.28 38.338,24.708L28.794,34.26ZM24.486,30.567C23.575,30.192 22.603,29.988 21.618,29.967L29.318,22.206C30.555,21.076 32.298,20.672 33.906,21.144L24.486,30.567ZM18.168,43.877C17.945,43.935 17.718,43.978 17.489,44.004C16.669,43.998 15.998,43.32 16,42.5C16.023,42.311 16.056,42.123 16.1,41.938L17.153,38.124C19.751,38.127 21.888,40.266 21.888,42.864C21.888,42.876 21.888,42.888 21.888,42.9L18.168,43.877ZM22.874,42.641C22.836,41.192 22.235,39.814 21.2,38.8C20.202,37.783 18.857,37.176 17.434,37.1L18.434,33.493C18.517,33.241 18.65,33.008 18.825,32.808C20.831,31.373 23.916,31.796 26.059,33.941C28.326,36.208 28.676,39.527 26.93,41.509C26.815,41.572 26.695,41.625 26.571,41.666L22.874,42.641ZM42.692,25.773L41.007,27.473C41.007,27.247 41.034,27.03 41.014,26.799C40.526,22.466 36.9,19.11 32.542,18.959L34.199,17.289C35.067,16.444 36.238,15.979 37.449,16C40.834,16.163 43.625,18.793 43.988,22.163C44.105,23.497 43.631,24.818 42.692,25.773Z" style="fill:rgb(102,109,137);"/>
    </g>
    <g id="Ellipse" transform="matrix(1.01686,0,0,1.01695,0,0)">
        <path d="M29.691,0.001L29.881,0.002L30.071,0.005L30.261,0.01L30.45,0.015L30.64,0.022L30.829,0.029L31.017,0.038L31.205,0.049L31.393,0.06L31.581,0.072L31.768,0.086L31.955,0.101L32.142,0.117L32.328,0.134L32.514,0.152L32.7,0.172L32.885,0.193L33.07,0.214L33.255,0.237L33.439,0.261L33.623,0.286L33.807,0.313L33.99,0.34L34.173,0.369L34.355,0.398L34.537,0.429L34.719,0.461L34.9,0.494L35.081,0.528L35.262,0.563L35.442,0.6L35.622,0.637L35.801,0.676L35.98,0.715L36.159,0.756L36.337,0.798L36.515,0.841L36.692,0.884L36.869,0.929L37.045,0.975L37.221,1.023L37.397,1.071L37.572,1.12L37.747,1.17L37.921,1.221L38.095,1.274L38.268,1.327L38.441,1.382L38.614,1.437L38.786,1.494L38.957,1.551L39.128,1.61L39.299,1.669L39.469,1.73L39.639,1.791L39.808,1.854L39.977,1.917L40.145,1.982L40.312,2.048L40.48,2.114L40.646,2.182L40.812,2.25L40.978,2.32L41.143,2.39L41.308,2.462L41.472,2.534L41.636,2.608L41.799,2.682L41.961,2.757L42.123,2.834L42.285,2.911L42.446,2.989L42.606,3.068L42.766,3.148L42.925,3.229L43.084,3.311L43.242,3.394L43.4,3.478L43.557,3.563L43.713,3.648L43.869,3.735L44.024,3.822L44.179,3.911L44.333,4L44.487,4.09L44.64,4.181L44.792,4.273L44.944,4.366L45.095,4.46L45.245,4.555L45.395,4.65L45.545,4.747L45.693,4.844L45.841,4.942L45.989,5.041L46.136,5.141L46.282,5.242L46.428,5.343L46.572,5.446L46.717,5.549L46.86,5.653L47.003,5.758L47.146,5.864L47.287,5.97L47.428,6.078L47.569,6.186L47.708,6.295L47.847,6.405L47.986,6.516L48.123,6.628L48.26,6.74L48.396,6.853L48.532,6.967L48.667,7.082L48.801,7.197L48.935,7.314L49.067,7.431L49.199,7.549L49.331,7.667L49.461,7.787L49.591,7.907L49.721,8.028L49.849,8.15L49.977,8.272L50.104,8.396L50.23,8.52L50.356,8.644L50.48,8.77L50.604,8.896L50.728,9.023L50.85,9.151L50.972,9.279L51.093,9.409L51.213,9.539L51.333,9.669L51.451,9.801L51.569,9.933L51.686,10.065L51.803,10.199L51.918,10.333L52.033,10.468L52.147,10.604L52.26,10.74L52.372,10.877L52.484,11.014L52.595,11.153L52.705,11.292L52.814,11.431L52.922,11.572L53.03,11.713L53.136,11.854L53.242,11.997L53.347,12.14L53.451,12.283L53.554,12.428L53.657,12.572L53.758,12.718L53.859,12.864L53.959,13.011L54.058,13.159L54.156,13.307L54.253,13.455L54.35,13.605L54.445,13.755L54.54,13.905L54.634,14.056L54.727,14.208L54.819,14.36L54.91,14.513L55,14.667L55.089,14.821L55.178,14.976L55.265,15.131L55.352,15.287L55.437,15.443L55.522,15.6L55.606,15.758L55.689,15.916L55.771,16.075L55.852,16.234L55.932,16.394L56.011,16.554L56.089,16.715L56.166,16.877L56.243,17.039L56.318,17.201L56.392,17.364L56.466,17.528L56.538,17.692L56.61,17.857L56.68,18.022L56.75,18.188L56.818,18.354L56.886,18.52L56.952,18.688L57.018,18.855L57.083,19.023L57.146,19.192L57.209,19.361L57.27,19.531L57.331,19.701L57.39,19.872L57.449,20.043L57.506,20.214L57.563,20.386L57.618,20.559L57.673,20.732L57.726,20.905L57.779,21.079L57.83,21.253L57.88,21.428L57.929,21.603L57.977,21.779L58.025,21.955L58.071,22.131L58.116,22.308L58.159,22.485L58.202,22.663L58.244,22.841L58.285,23.02L58.324,23.199L58.363,23.378L58.4,23.558L58.437,23.738L58.472,23.919L58.506,24.1L58.539,24.281L58.571,24.463L58.602,24.645L58.631,24.827L58.66,25.01L58.687,25.193L58.714,25.377L58.739,25.561L58.763,25.745L58.786,25.93L58.807,26.115L58.828,26.3L58.848,26.486L58.866,26.672L58.883,26.858L58.899,27.045L58.914,27.232L58.928,27.419L58.94,27.607L58.951,27.795L58.962,27.983L58.971,28.171L58.978,28.36L58.985,28.55L58.99,28.739L58.995,28.929L58.998,29.119L58.999,29.309L59,29.5L58.999,29.691L58.998,29.881L58.995,30.071L58.99,30.261L58.985,30.45L58.978,30.64L58.971,30.829L58.962,31.017L58.951,31.205L58.94,31.393L58.928,31.581L58.914,31.768L58.899,31.955L58.883,32.142L58.866,32.328L58.848,32.514L58.828,32.7L58.807,32.885L58.786,33.07L58.763,33.255L58.739,33.439L58.714,33.623L58.687,33.807L58.66,33.99L58.631,34.173L58.602,34.355L58.571,34.537L58.539,34.719L58.506,34.9L58.472,35.081L58.437,35.262L58.4,35.442L58.363,35.622L58.324,35.801L58.285,35.98L58.244,36.159L58.202,36.337L58.159,36.515L58.116,36.692L58.071,36.869L58.025,37.045L57.977,37.221L57.929,37.397L57.88,37.572L57.83,37.747L57.779,37.921L57.726,38.095L57.673,38.268L57.618,38.441L57.563,38.614L57.506,38.786L57.449,38.957L57.39,39.128L57.331,39.299L57.27,39.469L57.209,39.639L57.146,39.808L57.083,39.977L57.018,40.145L56.952,40.312L56.886,40.48L56.818,40.646L56.75,40.812L56.68,40.978L56.61,41.143L56.538,41.308L56.466,41.472L56.392,41.636L56.318,41.799L56.243,41.961L56.166,42.123L56.089,42.285L56.011,42.446L55.932,42.606L55.852,42.766L55.771,42.925L55.689,43.084L55.606,43.242L55.522,43.4L55.437,43.557L55.352,43.713L55.265,43.869L55.178,44.024L55.089,44.179L55,44.333L54.91,44.487L54.819,44.64L54.727,44.792L54.634,44.944L54.54,45.095L54.445,45.245L54.35,45.395L54.253,45.545L54.156,45.693L54.058,45.841L53.959,45.989L53.859,46.136L53.758,46.282L53.657,46.428L53.554,46.572L53.451,46.717L53.347,46.86L53.242,47.003L53.136,47.146L53.03,47.287L52.922,47.428L52.814,47.569L52.705,47.708L52.595,47.847L52.484,47.986L52.372,48.123L52.26,48.26L52.147,48.396L52.033,48.532L51.918,48.667L51.803,48.801L51.686,48.935L51.569,49.067L51.451,49.199L51.333,49.331L51.213,49.461L51.093,49.591L50.972,49.721L50.85,49.849L50.728,49.977L50.604,50.104L50.48,50.23L50.356,50.356L50.23,50.48L50.104,50.604L49.977,50.728L49.849,50.85L49.721,50.972L49.591,51.093L49.461,51.213L49.331,51.333L49.199,51.451L49.067,51.569L48.935,51.686L48.801,51.803L48.667,51.918L48.532,52.033L48.396,52.147L48.26,52.26L48.123,52.372L47.986,52.484L47.847,52.595L47.708,52.705L47.569,52.814L47.428,52.922L47.287,53.03L47.146,53.136L47.003,53.242L46.86,53.347L46.717,53.451L46.572,53.554L46.428,53.657L46.282,53.758L46.136,53.859L45.989,53.959L45.841,54.058L45.693,54.156L45.545,54.253L45.395,54.35L45.245,54.445L45.095,54.54L44.944,54.634L44.792,54.727L44.64,54.819L44.487,54.91L44.333,55L44.179,55.089L44.024,55.178L43.869,55.265L43.713,55.352L43.557,55.437L43.4,55.522L43.242,55.606L43.084,55.689L42.925,55.771L42.766,55.852L42.606,55.932L42.446,56.011L42.285,56.089L42.123,56.166L41.961,56.243L41.799,56.318L41.636,56.392L41.472,56.466L41.308,56.538L41.143,56.61L40.978,56.68L40.812,56.75L40.646,56.818L40.48,56.886L40.312,56.952L40.145,57.018L39.977,57.083L39.808,57.146L39.639,57.209L39.469,57.27L39.299,57.331L39.128,57.39L38.957,57.449L38.786,57.506L38.614,57.563L38.441,57.618L38.268,57.673L38.095,57.726L37.921,57.779L37.747,57.83L37.572,57.88L37.397,57.929L37.221,57.977L37.045,58.025L36.869,58.071L36.692,58.116L36.515,58.159L36.337,58.202L36.159,58.244L35.98,58.285L35.801,58.324L35.622,58.363L35.442,58.4L35.262,58.437L35.081,58.472L34.9,58.506L34.719,58.539L34.537,58.571L34.355,58.602L34.173,58.631L33.99,58.66L33.807,58.687L33.623,58.714L33.439,58.739L33.255,58.763L33.07,58.786L32.885,58.807L32.7,58.828L32.514,58.848L32.328,58.866L32.142,58.883L31.955,58.899L31.768,58.914L31.581,58.928L31.393,58.94L31.205,58.951L31.017,58.962L30.829,58.971L30.64,58.978L30.45,58.985L30.261,58.99L30.071,58.995L29.881,58.998L29.691,58.999L29.5,59L29.309,58.999L29.119,58.998L28.929,58.995L28.739,58.99L28.55,58.985L28.36,58.978L28.171,58.971L27.983,58.962L27.795,58.951L27.607,58.94L27.419,58.928L27.232,58.914L27.045,58.899L26.858,58.883L26.672,58.866L26.486,58.848L26.3,58.828L26.115,58.807L25.93,58.786L25.745,58.763L25.561,58.739L25.377,58.714L25.193,58.687L25.01,58.66L24.827,58.631L24.645,58.602L24.463,58.571L24.281,58.539L24.1,58.506L23.919,58.472L23.738,58.437L23.558,58.4L23.378,58.363L23.199,58.324L23.02,58.285L22.841,58.244L22.663,58.202L22.485,58.159L22.308,58.116L22.131,58.071L21.955,58.025L21.779,57.977L21.603,57.929L21.428,57.88L21.253,57.83L21.079,57.779L20.905,57.726L20.732,57.673L20.559,57.618L20.386,57.563L20.214,57.506L20.043,57.449L19.872,57.39L19.701,57.331L19.531,57.27L19.361,57.209L19.192,57.146L19.023,57.083L18.855,57.018L18.688,56.952L18.52,56.886L18.354,56.818L18.188,56.75L18.022,56.68L17.857,56.61L17.692,56.538L17.528,56.466L17.364,56.392L17.201,56.318L17.039,56.243L16.877,56.166L16.715,56.089L16.554,56.011L16.394,55.932L16.234,55.852L16.075,55.771L15.916,55.689L15.758,55.606L15.6,55.522L15.443,55.437L15.287,55.352L15.131,55.265L14.976,55.178L14.821,55.089L14.667,55L14.513,54.91L14.36,54.819L14.208,54.727L14.056,54.634L13.905,54.54L13.755,54.445L13.605,54.35L13.455,54.253L13.307,54.156L13.159,54.058L13.011,53.959L12.864,53.859L12.718,53.758L12.572,53.657L12.428,53.554L12.283,53.451L12.14,53.347L11.997,53.242L11.854,53.136L11.713,53.03L11.572,52.922L11.431,52.814L11.292,52.705L11.153,52.595L11.014,52.484L10.877,52.372L10.74,52.26L10.604,52.147L10.468,52.033L10.333,51.918L10.199,51.803L10.065,51.686L9.933,51.569L9.801,51.451L9.669,51.333L9.539,51.213L9.409,51.093L9.279,50.972L9.151,50.85L9.023,50.728L8.896,50.604L8.77,50.48L8.644,50.356L8.52,50.23L8.396,50.104L8.272,49.977L8.15,49.849L8.028,49.721L7.907,49.591L7.787,49.461L7.667,49.331L7.549,49.199L7.431,49.067L7.314,48.935L7.197,48.801L7.082,48.667L6.967,48.532L6.853,48.396L6.74,48.26L6.628,48.123L6.516,47.986L6.405,47.847L6.295,47.708L6.186,47.569L6.078,47.428L5.97,47.287L5.864,47.146L5.758,47.003L5.653,46.86L5.549,46.717L5.446,46.572L5.343,46.428L5.242,46.282L5.141,46.136L5.041,45.989L4.942,45.841L4.844,45.693L4.747,45.545L4.65,45.395L4.555,45.245L4.46,45.095L4.366,44.944L4.273,44.792L4.181,44.64L4.09,44.487L4,44.333L3.911,44.179L3.822,44.024L3.735,43.869L3.648,43.713L3.563,43.557L3.478,43.4L3.394,43.242L3.311,43.084L3.229,42.925L3.148,42.766L3.068,42.606L2.989,42.446L2.911,42.285L2.834,42.123L2.757,41.961L2.682,41.799L2.608,41.636L2.534,41.472L2.462,41.308L2.39,41.143L2.32,40.978L2.25,40.812L2.182,40.646L2.114,40.48L2.048,40.312L1.982,40.145L1.917,39.977L1.854,39.808L1.791,39.639L1.73,39.469L1.669,39.299L1.61,39.128L1.551,38.957L1.494,38.786L1.437,38.614L1.382,38.441L1.327,38.268L1.274,38.095L1.221,37.921L1.17,37.747L1.12,37.572L1.071,37.397L1.023,37.221L0.975,37.045L0.929,36.869L0.884,36.692L0.841,36.515L0.798,36.337L0.756,36.159L0.715,35.98L0.676,35.801L0.637,35.622L0.6,35.442L0.563,35.262L0.528,35.081L0.494,34.9L0.461,34.719L0.429,34.537L0.398,34.355L0.369,34.173L0.34,33.99L0.313,33.807L0.286,33.623L0.261,33.439L0.237,33.255L0.214,33.07L0.193,32.885L0.172,32.7L0.152,32.514L0.134,32.328L0.117,32.142L0.101,31.955L0.086,31.768L0.072,31.581L0.06,31.393L0.049,31.205L0.038,31.017L0.029,30.829L0.022,30.64L0.015,30.45L0.01,30.261L0.005,30.071L0.002,29.881L0.001,29.691L0,29.5L0.001,29.309L0.002,29.119L0.005,28.929L0.01,28.739L0.015,28.55L0.022,28.36L0.029,28.171L0.038,27.983L0.049,27.795L0.06,27.607L0.072,27.419L0.086,27.232L0.101,27.045L0.117,26.858L0.134,26.672L0.152,26.486L0.172,26.3L0.193,26.115L0.214,25.93L0.237,25.745L0.261,25.561L0.286,25.377L0.313,25.193L0.34,25.01L0.369,24.827L0.398,24.645L0.429,24.463L0.461,24.281L0.494,24.1L0.528,23.919L0.563,23.738L0.6,23.558L0.637,23.378L0.676,23.199L0.715,23.02L0.756,22.841L0.798,22.663L0.841,22.485L0.884,22.308L0.929,22.131L0.975,21.955L1.023,21.779L1.071,21.603L1.12,21.428L1.17,21.253L1.221,21.079L1.274,20.905L1.327,20.732L1.382,20.559L1.437,20.386L1.494,20.214L1.551,20.043L1.61,19.872L1.669,19.701L1.73,19.531L1.791,19.361L1.854,19.192L1.917,19.023L1.982,18.855L2.048,18.688L2.114,18.52L2.182,18.354L2.25,18.188L2.32,18.022L2.39,17.857L2.462,17.692L2.534,17.528L2.608,17.364L2.682,17.201L2.757,17.039L2.834,16.877L2.911,16.715L2.989,16.554L3.068,16.394L3.148,16.234L3.229,16.075L3.311,15.916L3.394,15.758L3.478,15.6L3.563,15.443L3.648,15.287L3.735,15.131L3.822,14.976L3.911,14.821L4,14.667L4.09,14.513L4.181,14.36L4.273,14.208L4.366,14.056L4.46,13.905L4.555,13.755L4.65,13.605L4.747,13.455L4.844,13.307L4.942,13.159L5.041,13.011L5.141,12.864L5.242,12.718L5.343,12.572L5.446,12.428L5.549,12.283L5.653,12.14L5.758,11.997L5.864,11.854L5.97,11.713L6.078,11.572L6.186,11.431L6.295,11.292L6.405,11.153L6.516,11.014L6.628,10.877L6.74,10.74L6.853,10.604L6.967,10.468L7.082,10.333L7.197,10.199L7.314,10.065L7.431,9.933L7.549,9.801L7.667,9.669L7.787,9.539L7.907,9.409L8.028,9.279L8.15,9.151L8.272,9.023L8.396,8.896L8.52,8.77L8.644,8.644L8.77,8.52L8.896,8.396L9.023,8.272L9.151,8.15L9.279,8.028L9.409,7.907L9.539,7.787L9.669,7.667L9.801,7.549L9.933,7.431L10.065,7.314L10.199,7.197L10.333,7.082L10.468,6.967L10.604,6.853L10.74,6.74L10.877,6.628L11.014,6.516L11.153,6.405L11.292,6.295L11.431,6.186L11.572,6.078L11.713,5.97L11.854,5.864L11.997,5.758L12.14,5.653L12.283,5.549L12.428,5.446L12.572,5.343L12.718,5.242L12.864,5.141L13.011,5.041L13.159,4.942L13.307,4.844L13.455,4.747L13.605,4.65L13.755,4.555L13.905,4.46L14.056,4.366L14.208,4.273L14.36,4.181L14.513,4.09L14.667,4L14.821,3.911L14.976,3.822L15.131,3.735L15.287,3.648L15.443,3.563L15.6,3.478L15.758,3.394L15.916,3.311L16.075,3.229L16.234,3.148L16.394,3.068L16.554,2.989L16.715,2.911L16.877,2.834L17.039,2.757L17.201,2.682L17.364,2.608L17.528,2.534L17.692,2.462L17.857,2.39L18.022,2.32L18.188,2.25L18.354,2.182L18.52,2.114L18.688,2.048L18.855,1.982L19.023,1.917L19.192,1.854L19.361,1.791L19.531,1.73L19.701,1.669L19.872,1.61L20.043,1.551L20.214,1.494L20.386,1.437L20.559,1.382L20.732,1.327L20.905,1.274L21.079,1.221L21.253,1.17L21.428,1.12L21.603,1.071L21.779,1.023L21.955,0.975L22.131,0.929L22.308,0.884L22.485,0.841L22.663,0.798L22.841,0.756L23.02,0.715L23.199,0.676L23.378,0.637L23.558,0.6L23.738,0.563L23.919,0.528L24.1,0.494L24.281,0.461L24.463,0.429L24.645,0.398L24.827,0.369L25.01,0.34L25.193,0.313L25.377,0.286L25.561,0.261L25.745,0.237L25.93,0.214L26.115,0.193L26.3,0.172L26.486,0.152L26.672,0.134L26.858,0.117L27.045,0.101L27.232,0.086L27.419,0.072L27.607,0.06L27.795,0.049L27.983,0.038L28.171,0.029L28.36,0.022L28.55,0.015L28.739,0.01L28.929,0.005L29.119,0.002L29.309,0.001L29.5,0L29.691,0.001ZM29.322,2L29.144,2.002L28.967,2.005L28.79,2.009L28.613,2.014L28.436,2.02L28.26,2.027L28.084,2.036L27.909,2.045L27.733,2.056L27.558,2.067L27.384,2.08L27.209,2.094L27.035,2.109L26.861,2.125L26.688,2.142L26.515,2.16L26.342,2.179L26.17,2.2L25.997,2.221L25.826,2.244L25.654,2.267L25.483,2.292L25.312,2.317L25.142,2.344L24.972,2.371L24.802,2.4L24.633,2.43L24.464,2.461L24.295,2.492L24.127,2.525L23.959,2.559L23.792,2.594L23.625,2.63L23.458,2.667L23.292,2.705L23.126,2.743L22.96,2.783L22.795,2.824L22.63,2.866L22.466,2.909L22.302,2.953L22.138,2.998L21.975,3.044L21.812,3.09L21.65,3.138L21.488,3.187L21.326,3.237L21.165,3.287L21.004,3.339L20.844,3.392L20.684,3.445L20.525,3.5L20.366,3.555L20.208,3.612L20.05,3.669L19.892,3.727L19.735,3.787L19.578,3.847L19.422,3.908L19.266,3.97L19.111,4.033L18.956,4.097L18.802,4.162L18.648,4.227L18.494,4.294L18.341,4.361L18.189,4.43L18.037,4.499L17.885,4.569L17.734,4.64L17.584,4.712L17.434,4.785L17.285,4.859L17.136,4.934L16.987,5.009L16.839,5.085L16.692,5.163L16.545,5.241L16.399,5.32L16.253,5.4L16.107,5.48L15.963,5.562L15.818,5.644L15.675,5.728L15.532,5.812L15.389,5.897L15.247,5.982L15.106,6.069L14.965,6.156L14.824,6.244L14.684,6.334L14.545,6.423L14.407,6.514L14.269,6.606L14.131,6.698L13.994,6.791L13.858,6.885L13.722,6.98L13.587,7.075L13.452,7.172L13.319,7.269L13.185,7.367L13.052,7.465L12.92,7.565L12.789,7.665L12.658,7.766L12.528,7.868L12.398,7.97L12.269,8.073L12.141,8.177L12.013,8.282L11.886,8.388L11.76,8.494L11.634,8.601L11.509,8.709L11.384,8.817L11.26,8.927L11.137,9.037L11.015,9.147L10.893,9.259L10.772,9.371L10.651,9.484L10.531,9.597L10.412,9.711L10.294,9.826L10.176,9.942L10.059,10.059L9.942,10.176L9.827,10.293L9.712,10.412L9.597,10.531L9.484,10.651L9.371,10.771L9.259,10.892L9.147,11.014L9.037,11.137L8.927,11.26L8.818,11.384L8.709,11.508L8.601,11.633L8.494,11.759L8.388,11.886L8.282,12.013L8.178,12.141L8.074,12.269L7.97,12.398L7.868,12.528L7.766,12.658L7.665,12.789L7.565,12.92L7.465,13.052L7.367,13.185L7.269,13.318L7.172,13.452L7.075,13.587L6.98,13.722L6.885,13.858L6.791,13.994L6.698,14.131L6.606,14.268L6.514,14.406L6.424,14.545L6.334,14.684L6.245,14.824L6.156,14.964L6.069,15.105L5.982,15.247L5.897,15.389L5.812,15.531L5.728,15.675L5.644,15.818L5.562,15.962L5.481,16.107L5.4,16.253L5.32,16.398L5.241,16.545L5.163,16.692L5.086,16.839L5.009,16.987L4.934,17.135L4.859,17.284L4.785,17.434L4.713,17.584L4.641,17.734L4.569,17.885L4.499,18.037L4.43,18.189L4.362,18.341L4.294,18.494L4.227,18.647L4.162,18.801L4.097,18.956L4.033,19.111L3.97,19.266L3.908,19.422L3.847,19.578L3.787,19.735L3.728,19.892L3.669,20.049L3.612,20.207L3.555,20.366L3.5,20.525L3.445,20.684L3.392,20.844L3.339,21.004L3.288,21.165L3.237,21.326L3.187,21.488L3.138,21.65L3.091,21.812L3.044,21.975L2.998,22.138L2.953,22.301L2.909,22.465L2.866,22.63L2.824,22.795L2.784,22.96L2.744,23.125L2.705,23.291L2.667,23.458L2.63,23.625L2.594,23.792L2.559,23.959L2.525,24.127L2.493,24.295L2.461,24.464L2.43,24.633L2.4,24.802L2.372,24.972L2.344,25.142L2.317,25.312L2.292,25.483L2.267,25.654L2.244,25.826L2.221,25.997L2.2,26.17L2.18,26.342L2.16,26.515L2.142,26.688L2.125,26.861L2.109,27.035L2.094,27.209L2.08,27.384L2.068,27.558L2.056,27.733L2.045,27.909L2.036,28.084L2.028,28.26L2.02,28.436L2.014,28.613L2.009,28.79L2.005,28.967L2.002,29.144L2.001,29.322L2,29.5L2.001,29.678L2.002,29.856L2.005,30.033L2.009,30.21L2.014,30.387L2.02,30.564L2.028,30.74L2.036,30.916L2.045,31.091L2.056,31.267L2.068,31.442L2.08,31.616L2.094,31.791L2.109,31.965L2.125,32.139L2.142,32.312L2.16,32.485L2.18,32.658L2.2,32.83L2.221,33.003L2.244,33.174L2.267,33.346L2.292,33.517L2.317,33.688L2.344,33.858L2.372,34.028L2.4,34.198L2.43,34.367L2.461,34.536L2.493,34.705L2.525,34.873L2.559,35.041L2.594,35.208L2.63,35.375L2.667,35.542L2.705,35.709L2.744,35.875L2.784,36.04L2.824,36.205L2.866,36.37L2.909,36.535L2.953,36.699L2.998,36.862L3.044,37.025L3.091,37.188L3.138,37.35L3.187,37.512L3.237,37.674L3.288,37.835L3.339,37.996L3.392,38.156L3.445,38.316L3.5,38.475L3.555,38.634L3.612,38.793L3.669,38.951L3.728,39.108L3.787,39.265L3.847,39.422L3.908,39.578L3.97,39.734L4.033,39.889L4.097,40.044L4.162,40.199L4.227,40.353L4.294,40.506L4.362,40.659L4.43,40.811L4.499,40.963L4.569,41.115L4.641,41.266L4.713,41.416L4.785,41.566L4.859,41.716L4.934,41.865L5.009,42.013L5.086,42.161L5.163,42.308L5.241,42.455L5.32,42.602L5.4,42.747L5.481,42.893L5.562,43.038L5.644,43.182L5.728,43.325L5.812,43.469L5.897,43.611L5.982,43.753L6.069,43.895L6.156,44.036L6.245,44.176L6.334,44.316L6.424,44.455L6.514,44.594L6.606,44.732L6.698,44.869L6.791,45.006L6.885,45.142L6.98,45.278L7.075,45.413L7.172,45.548L7.269,45.682L7.367,45.815L7.465,45.948L7.565,46.08L7.665,46.211L7.766,46.342L7.868,46.472L7.97,46.602L8.074,46.731L8.178,46.859L8.282,46.987L8.388,47.114L8.494,47.241L8.601,47.367L8.709,47.492L8.818,47.616L8.927,47.74L9.037,47.863L9.147,47.986L9.259,48.108L9.371,48.229L9.484,48.349L9.597,48.469L9.712,48.588L9.827,48.707L9.942,48.824L10.059,48.941L10.176,49.058L10.294,49.174L10.412,49.289L10.531,49.403L10.651,49.516L10.772,49.629L10.893,49.741L11.015,49.853L11.137,49.963L11.26,50.073L11.384,50.183L11.509,50.291L11.634,50.399L11.76,50.506L11.886,50.612L12.013,50.718L12.141,50.823L12.269,50.927L12.398,51.03L12.528,51.132L12.658,51.234L12.789,51.335L12.92,51.435L13.053,51.535L13.185,51.633L13.319,51.731L13.452,51.828L13.587,51.925L13.722,52.02L13.858,52.115L13.994,52.209L14.131,52.302L14.269,52.394L14.407,52.486L14.545,52.577L14.684,52.666L14.824,52.755L14.965,52.844L15.106,52.931L15.247,53.018L15.389,53.104L15.532,53.188L15.675,53.272L15.818,53.356L15.963,53.438L16.107,53.52L16.253,53.6L16.399,53.68L16.545,53.759L16.692,53.837L16.839,53.915L16.987,53.991L17.136,54.066L17.285,54.141L17.434,54.215L17.584,54.288L17.734,54.36L17.885,54.431L18.037,54.501L18.189,54.57L18.341,54.639L18.494,54.706L18.648,54.773L18.802,54.838L18.956,54.903L19.111,54.967L19.266,55.03L19.422,55.092L19.578,55.153L19.735,55.213L19.892,55.273L20.05,55.331L20.208,55.388L20.366,55.445L20.525,55.5L20.684,55.555L20.844,55.608L21.004,55.661L21.165,55.713L21.326,55.763L21.488,55.813L21.65,55.862L21.812,55.91L21.975,55.956L22.138,56.002L22.302,56.047L22.466,56.091L22.63,56.134L22.795,56.176L22.96,56.217L23.126,56.257L23.292,56.295L23.458,56.333L23.625,56.37L23.792,56.406L23.959,56.441L24.127,56.475L24.295,56.508L24.464,56.539L24.633,56.57L24.802,56.6L24.972,56.629L25.142,56.656L25.312,56.683L25.483,56.708L25.654,56.733L25.826,56.756L25.997,56.779L26.17,56.8L26.342,56.821L26.515,56.84L26.688,56.858L26.861,56.875L27.035,56.891L27.209,56.906L27.384,56.92L27.558,56.933L27.733,56.944L27.909,56.955L28.084,56.964L28.26,56.973L28.436,56.98L28.613,56.986L28.79,56.991L28.967,56.995L29.144,56.998L29.322,57L29.5,57L29.678,57L29.856,56.998L30.033,56.995L30.21,56.991L30.387,56.986L30.564,56.98L30.74,56.973L30.916,56.964L31.091,56.955L31.267,56.944L31.442,56.933L31.616,56.92L31.791,56.906L31.965,56.891L32.139,56.875L32.312,56.858L32.485,56.84L32.658,56.821L32.83,56.8L33.003,56.779L33.174,56.756L33.346,56.733L33.517,56.708L33.688,56.683L33.858,56.656L34.028,56.629L34.198,56.6L34.367,56.57L34.536,56.539L34.705,56.508L34.873,56.475L35.041,56.441L35.208,56.406L35.375,56.37L35.542,56.333L35.708,56.295L35.874,56.257L36.04,56.217L36.205,56.176L36.37,56.134L36.534,56.091L36.698,56.047L36.862,56.002L37.025,55.956L37.188,55.91L37.35,55.862L37.512,55.813L37.674,55.763L37.835,55.713L37.996,55.661L38.156,55.608L38.316,55.555L38.475,55.5L38.634,55.445L38.792,55.388L38.95,55.331L39.108,55.273L39.265,55.213L39.422,55.153L39.578,55.092L39.734,55.03L39.889,54.967L40.044,54.903L40.198,54.839L40.352,54.773L40.506,54.706L40.659,54.639L40.811,54.57L40.963,54.501L41.115,54.431L41.266,54.36L41.416,54.288L41.566,54.215L41.715,54.141L41.864,54.066L42.013,53.991L42.161,53.915L42.308,53.837L42.455,53.759L42.601,53.68L42.747,53.6L42.893,53.52L43.037,53.438L43.182,53.356L43.325,53.272L43.468,53.188L43.611,53.104L43.753,53.018L43.894,52.931L44.035,52.844L44.176,52.755L44.316,52.666L44.455,52.577L44.593,52.486L44.731,52.394L44.869,52.302L45.006,52.209L45.142,52.115L45.278,52.02L45.413,51.925L45.548,51.828L45.681,51.731L45.815,51.633L45.947,51.535L46.08,51.435L46.211,51.335L46.342,51.234L46.472,51.132L46.602,51.03L46.731,50.927L46.859,50.823L46.987,50.718L47.114,50.612L47.24,50.506L47.366,50.399L47.491,50.291L47.616,50.183L47.74,50.073L47.863,49.963L47.985,49.853L48.107,49.741L48.228,49.629L48.349,49.516L48.469,49.403L48.588,49.289L48.706,49.174L48.824,49.058L48.941,48.941L49.058,48.824L49.173,48.707L49.288,48.588L49.403,48.469L49.516,48.349L49.629,48.229L49.741,48.108L49.853,47.986L49.963,47.863L50.073,47.74L50.182,47.616L50.291,47.492L50.399,47.367L50.506,47.241L50.612,47.114L50.718,46.987L50.822,46.859L50.926,46.731L51.03,46.602L51.132,46.472L51.234,46.342L51.335,46.211L51.435,46.08L51.535,45.948L51.633,45.815L51.731,45.682L51.828,45.548L51.925,45.413L52.02,45.278L52.115,45.142L52.209,45.006L52.302,44.869L52.394,44.732L52.486,44.594L52.576,44.455L52.666,44.316L52.755,44.176L52.844,44.036L52.931,43.895L53.018,43.753L53.103,43.611L53.188,43.469L53.272,43.325L53.356,43.182L53.438,43.038L53.519,42.893L53.6,42.747L53.68,42.602L53.759,42.455L53.837,42.308L53.914,42.161L53.991,42.013L54.066,41.865L54.141,41.716L54.215,41.566L54.287,41.416L54.359,41.266L54.431,41.115L54.501,40.963L54.57,40.811L54.638,40.659L54.706,40.506L54.773,40.353L54.838,40.199L54.903,40.044L54.967,39.889L55.03,39.734L55.092,39.578L55.153,39.422L55.213,39.265L55.272,39.108L55.331,38.951L55.388,38.793L55.445,38.634L55.5,38.475L55.555,38.316L55.608,38.156L55.661,37.996L55.712,37.835L55.763,37.674L55.813,37.512L55.862,37.35L55.909,37.188L55.956,37.025L56.002,36.862L56.047,36.699L56.091,36.535L56.134,36.37L56.176,36.205L56.216,36.04L56.256,35.875L56.295,35.709L56.333,35.542L56.37,35.375L56.406,35.208L56.441,35.041L56.475,34.873L56.507,34.705L56.539,34.536L56.57,34.367L56.6,34.198L56.628,34.028L56.656,33.858L56.683,33.688L56.708,33.517L56.733,33.346L56.756,33.174L56.779,33.003L56.8,32.83L56.82,32.658L56.84,32.485L56.858,32.312L56.875,32.139L56.891,31.965L56.906,31.791L56.92,31.616L56.932,31.442L56.944,31.267L56.955,31.091L56.964,30.916L56.972,30.74L56.98,30.564L56.986,30.387L56.991,30.21L56.995,30.033L56.998,29.856L56.999,29.678L57,29.5L56.999,29.322L56.998,29.144L56.995,28.967L56.991,28.79L56.986,28.613L56.98,28.436L56.972,28.26L56.964,28.084L56.955,27.909L56.944,27.733L56.932,27.558L56.92,27.384L56.906,27.209L56.891,27.035L56.875,26.861L56.858,26.688L56.84,26.515L56.82,26.342L56.8,26.17L56.779,25.997L56.756,25.826L56.733,25.654L56.708,25.483L56.683,25.312L56.656,25.142L56.628,24.972L56.6,24.802L56.57,24.633L56.539,24.464L56.507,24.295L56.475,24.127L56.441,23.959L56.406,23.792L56.37,23.625L56.333,23.458L56.295,23.291L56.256,23.125L56.216,22.96L56.176,22.795L56.134,22.63L56.091,22.465L56.047,22.301L56.002,22.138L55.956,21.975L55.909,21.812L55.862,21.65L55.813,21.488L55.763,21.326L55.712,21.165L55.661,21.004L55.608,20.844L55.555,20.684L55.5,20.525L55.445,20.366L55.388,20.207L55.331,20.049L55.272,19.892L55.213,19.735L55.153,19.578L55.092,19.422L55.03,19.266L54.967,19.111L54.903,18.956L54.838,18.801L54.773,18.647L54.706,18.494L54.638,18.341L54.57,18.189L54.501,18.037L54.431,17.885L54.359,17.734L54.287,17.584L54.215,17.434L54.141,17.284L54.066,17.135L53.991,16.987L53.914,16.839L53.837,16.692L53.759,16.545L53.68,16.398L53.6,16.253L53.519,16.107L53.438,15.962L53.356,15.818L53.272,15.675L53.188,15.531L53.103,15.389L53.018,15.247L52.931,15.105L52.844,14.964L52.755,14.824L52.666,14.684L52.576,14.545L52.486,14.406L52.394,14.268L52.302,14.131L52.209,13.994L52.115,13.858L52.02,13.722L51.925,13.587L51.828,13.452L51.731,13.318L51.633,13.185L51.535,13.052L51.435,12.92L51.335,12.789L51.234,12.658L51.132,12.528L51.03,12.398L50.926,12.269L50.822,12.141L50.718,12.013L50.612,11.886L50.506,11.759L50.399,11.633L50.291,11.508L50.182,11.384L50.073,11.26L49.963,11.137L49.853,11.014L49.741,10.892L49.629,10.771L49.516,10.651L49.403,10.531L49.288,10.412L49.173,10.293L49.058,10.176L48.941,10.059L48.824,9.942L48.706,9.826L48.588,9.711L48.469,9.597L48.349,9.484L48.228,9.371L48.107,9.259L47.985,9.147L47.863,9.037L47.74,8.927L47.616,8.817L47.491,8.709L47.366,8.601L47.24,8.494L47.114,8.388L46.987,8.282L46.859,8.177L46.731,8.073L46.602,7.97L46.472,7.868L46.342,7.766L46.211,7.665L46.08,7.565L45.948,7.465L45.815,7.367L45.681,7.269L45.548,7.172L45.413,7.075L45.278,6.98L45.142,6.885L45.006,6.791L44.869,6.698L44.731,6.606L44.593,6.514L44.455,6.423L44.316,6.334L44.176,6.244L44.035,6.156L43.894,6.069L43.753,5.982L43.611,5.897L43.468,5.812L43.325,5.728L43.182,5.644L43.037,5.562L42.893,5.48L42.747,5.4L42.601,5.32L42.455,5.241L42.308,5.163L42.161,5.085L42.013,5.009L41.864,4.934L41.715,4.859L41.566,4.785L41.416,4.712L41.266,4.64L41.115,4.569L40.963,4.499L40.811,4.43L40.659,4.361L40.506,4.294L40.352,4.227L40.198,4.162L40.044,4.097L39.889,4.033L39.734,3.97L39.578,3.908L39.422,3.847L39.265,3.787L39.108,3.727L38.95,3.669L38.792,3.612L38.634,3.555L38.475,3.5L38.316,3.445L38.156,3.392L37.996,3.339L37.835,3.287L37.674,3.237L37.512,3.187L37.35,3.138L37.188,3.09L37.025,3.044L36.862,2.998L36.698,2.953L36.534,2.909L36.37,2.866L36.205,2.824L36.04,2.783L35.874,2.743L35.708,2.705L35.542,2.667L35.375,2.63L35.208,2.594L35.041,2.559L34.873,2.525L34.705,2.492L34.536,2.461L34.367,2.43L34.198,2.4L34.028,2.371L33.858,2.344L33.688,2.317L33.517,2.292L33.346,2.267L33.174,2.244L33.003,2.221L32.83,2.2L32.658,2.179L32.485,2.16L32.312,2.142L32.139,2.125L31.965,2.109L31.791,2.094L31.616,2.08L31.442,2.067L31.267,2.056L31.091,2.045L30.916,2.036L30.74,2.027L30.564,2.02L30.387,2.014L30.21,2.009L30.033,2.005L29.856,2.002L29.678,2L29.5,2L29.322,2Z" style="fill:rgb(102,109,137);"/>
    </g>
</svg>
